<svg version="1.1" xmlns="http://www.w3.org/2000/svg" xmlns:xlink="http://www.w3.org/1999/xlink" width="48" height="48"><defs><linearGradient x1="12.98699" y1="7.97479" x2="67.2552" y2="69.91637" gradientUnits="userSpaceOnUse" id="color-1"><stop offset="0" stop-color="#000000" stop-opacity="0.3"></stop><stop offset="1" stop-color="#000000" stop-opacity="0"></stop></linearGradient><filter id="dropshadow-base"><feColorMatrix type="matrix" values="0 0 0 0 0  0 0 0 0 0  0 0 0 0 0  0 0 0 .8 0"></feColorMatrix> <feOffset dx="0" dy="1"></feOffset> <feGaussianBlur stdDeviation="1"></feGaussianBlur> <feComposite in="SourceGraphic"></feComposite></filter><filter id="dropshadow-banner" x="-10%" y="-10%" width="120%" height="130%"><feColorMatrix type="matrix" values="0 0 0 0 0  0 0 0 0 0  0 0 0 0 0  0 0 0 .4 0"></feColorMatrix> <feOffset dx="0" dy="1"></feOffset> <feGaussianBlur stdDeviation="0.5"></feGaussianBlur> <feComposite in="SourceGraphic"></feComposite></filter></defs><g fill="none" fill-rule="nonzero" stroke="none" stroke-width="none" stroke-linecap="butt" stroke-linejoin="miter" stroke-miterlimit="10" stroke-dasharray="" stroke-dashoffset="0" font-family="none" font-weight="none" font-size="none" text-anchor="none" style="mix-blend-mode: normal"><path d="M7,43c-1.10457,0 -2,-0.89543 -2,-2v-34c0,-1.10457 0.89543,-2 2,-2h34c1.10457,0 2,0.89543 2,2v34c0,1.10457 -0.89543,2 -2,2z" id="base 1 5" fill="#20242a" stroke-width="1"></path><path d="M26.73358,7.99539c0.09312,-0.04091 0.20014,-0.01928 0.27013,0.0507l15.9963,15.9963v16.95761c0,1.10457 -0.89543,2 -2,2h-19.60635l-8.07319,-8.07319c0,0 0,0 0,0c-0.02163,-0.02163 -0.04176,-0.04306 -0.0606,-0.06423c-0.21121,-0.2374 -0.3005,-0.51006 -0.26544,-0.81056c0.1154,-0.98583 2.32668,-1.24631 4.2402,-1.36316c0.12863,-0.0078 0.23954,-0.01461 0.27225,-0.01899c0.07856,-0.01026 0.15316,0.01754 0.20496,0.06935l1.99734,1.99734c0.4122,0.03009 0.84617,0.05522 1.29934,0.07403l-2.44306,-2.44306c-0.02481,-0.02481 -0.04806,-0.05007 -0.06974,-0.07576c-0.18336,-0.21725 -0.26097,-0.46477 -0.23078,-0.73577c0.05497,-0.49994 0.51252,-0.74381 0.93923,-0.86271l-1.55328,-1.55328c-0.13893,-0.13893 -0.22302,-0.29247 -0.2372,-0.46125c-0.01481,-0.17658 0.04552,-0.34074 0.18032,-0.49202l-1.95778,-1.95778c-0.04794,-0.04794 -0.09024,-0.0973 -0.12681,-0.14807c-0.17762,-0.24665 -0.22191,-0.52563 -0.12805,-0.80656c0.39534,-1.19528 4.1777,-1.25585 4.93196,-1.25594l0,-0.00001c0.06687,0 0.1279,0.02709 0.17212,0.07132l1.63742,1.63742c0.0145,0.00001 0.02903,0.00002 0.04361,0.00002l2.72388,2.72388c0.95979,-0.11824 1.73833,-0.26649 2.2257,-0.37088l-4.94253,-4.94253c-1.2687,-1.2687 -3.08637,-3.59886 -2.08152,-5.79078c0.83334,-1.80991 2.38871,-2.90392 3.76103,-3.8691c0.95681,-0.67287 1.78303,-1.2541 2.1592,-1.93678l-0.00002,-0.00002c0.9128,-1.65216 0.58474,-3.25584 0.58134,-3.2718c-0.02415,-0.11286 0.03438,-0.22717 0.14003,-0.27372z" fill="url(#color-1)" stroke-width="1"></path><path transform="translate(-11.63928,-12.81479) scale(1.48497,1.48497)" d="M25.35505,16.40148c0.61469,-1.11259 0.39377,-2.19253 0.39148,-2.20328c-0.01626,-0.076 0.02315,-0.15298 0.0943,-0.18433c0.07121,-0.03128 0.15449,-0.00826 0.19961,0.05508c0.01161,0.01626 1.14754,1.64931 0.12551,3.3101c-0.46557,0.75449 -1.26125,1.39948 -1.96322,1.96853c-0.76643,0.62131 -1.49036,1.20813 -1.5044,1.72538c-0.03961,1.48531 1.02623,3.55561 1.03699,3.57633c0.03541,0.0682 0.01869,0.15193 -0.04026,0.20125c-0.03043,0.02544 -0.06787,0.03823 -0.10525,0.03823c-0.03521,0 -0.07049,-0.01128 -0.1,-0.03403c-0.12689,-0.09771 -3.09627,-2.41718 -2.12151,-4.54348c0.56118,-1.21882 1.60859,-1.95554 2.53273,-2.60551c0.64433,-0.45312 1.20072,-0.84453 1.45404,-1.30426zM25.48128,20.62031c-0.35416,0.64125 -0.12072,0.98846 0.20249,1.46905c0.20866,0.31023 0.44512,0.66184 0.54439,1.14295c0.26656,1.2659 -1.21954,2.31659 -1.28295,2.36073c-0.02826,0.01967 -0.06098,0.02938 -0.09357,0.02938c-0.0383,0 -0.07652,-0.01338 -0.10715,-0.0398c-0.05666,-0.04892 -0.07298,-0.13003 -0.03967,-0.19705c0.11554,-0.23292 0.39036,-0.92079 0.27436,-1.30138c-0.04118,-0.13207 -0.16623,-0.28675 -0.31108,-0.46584c-0.36925,-0.45672 -0.87495,-1.08217 -0.87495,-2.26597c0,-1.71745 3.68742,-3.13876 3.8444,-3.19843c0.07633,-0.02898 0.1623,0.00256 0.20177,0.07403c0.03948,0.07148 0.02033,0.16105 -0.04485,0.21016c-0.01895,0.01423 -1.8981,1.43436 -2.31318,2.18217zM21.51734,24.80398c0.08439,0 0.15495,0.06407 0.16315,0.14807c0.0082,0.084 -0.04872,0.16046 -0.13154,0.17672c-0.86643,0.17043 -1.56564,0.44839 -1.67902,0.60407c0.22092,0.09423 1.12335,0.22184 2.89535,0.22184c1.58361,0 3.86676,-0.11849 5.08939,-0.45233c0.07416,-0.02039 0.1518,0.01351 0.1878,0.08098c0.036,0.06754 0.02052,0.15102 -0.03738,0.20112c-0.05311,0.04597 -1.34079,1.12748 -4.81247,1.25181c-0.31816,0.01141 -0.62879,0.01718 -0.92302,0.01718c-0.00007,0 -0.00013,0 -0.00026,0c-2.17141,0 -3.58728,-0.30564 -3.98702,-0.86053c-0.11961,-0.1661 -0.14944,-0.35397 -0.08623,-0.54315c0.26623,-0.80492 2.81332,-0.84571 3.32125,-0.84577zM31.38982,25.99815c0.3581,1.97213 -3.02899,2.7185 -3.17338,2.74932c-0.01141,0.00249 -0.02289,0.00367 -0.03423,0.00367c-0.06492,0 -0.12518,-0.03869 -0.15108,-0.10052c-0.03049,-0.07259 -0.00498,-0.15666 0.06072,-0.20013c0.60833,-0.40249 2.16046,-1.61023 2.03915,-2.35561c-0.13698,-0.864 -1.64918,-0.87633 -1.6644,-0.87639c-0.07515,-0.00007 -0.14066,-0.05128 -0.15889,-0.12413c-0.01816,-0.07292 0.01541,-0.14885 0.08164,-0.18433c0.02859,-0.01528 0.70761,-0.3741 1.42367,-0.3741c0.59869,0 1.3583,0.25364 1.57679,1.46223zM27.3683,28.33822c-0.02557,0.00636 -2.58322,0.63233 -4.5783,0.63233c-0.00013,0 -0.0002,0 -0.00033,0c-0.19534,0 -0.38197,-0.00603 -0.55449,-0.01784c-1.19981,-0.08321 -2.61902,-0.39771 -2.6705,-1.01036c-0.02898,-0.34557 0.36938,-0.62053 1.18407,-0.81712c0.08446,-0.02033 0.17003,0.02859 0.19528,0.11161c0.02531,0.08302 -0.01856,0.17141 -0.09993,0.20151c-0.07371,0.02787 -0.188,0.09836 -0.20931,0.15771c-0.00275,0.00754 -0.00767,0.02111 0.00787,0.05095c0.11738,0.10623 0.92341,0.25108 2.15613,0.25108c0.54774,0 1.09587,-0.02898 1.58525,-0.08387c1.23305,-0.13692 2.08236,-0.36013 2.09082,-0.36236c0.04649,-0.01233 0.09652,-0.00361 0.13613,0.02413l0.81213,0.56885c0.05259,0.03685 0.07889,0.10111 0.06708,0.16433c-0.01187,0.06321 -0.05948,0.11364 -0.1219,0.12905zM21.33701,29.59055c0.20957,0.10505 1.3023,0.26557 2.28473,0.26557c0.27344,0 0.50649,-0.01285 0.69259,-0.0381c0.98348,-0.13357 1.63515,-0.26872 1.64164,-0.2701c0.04066,-0.00833 0.08328,-0.00111 0.11889,0.02059l1.02636,0.62656c0.05141,0.03141 0.08144,0.08852 0.07823,0.14866c-0.00321,0.0602 -0.03915,0.11371 -0.09364,0.13948c-0.0562,0.02656 -1.3983,0.65049 -3.39109,0.65049c-0.18616,0 -0.37449,-0.00557 -0.55994,-0.01666c-1.56748,-0.09095 -2.49705,-0.33351 -2.84145,-0.74164c-0.12348,-0.1463 -0.17574,-0.31298 -0.15541,-0.49548c0.06715,-0.61069 1.0263,-0.65397 1.13548,-0.65685c0.07357,-0.00092 0.13908,0.04505 0.16085,0.11508c0.02184,0.07003 -0.00544,0.14603 -0.06695,0.1861c-0.02944,0.02164 -0.03331,0.04656 -0.0303,0.0663zM22.7658,33.01751c-4.65004,0 -5.65037,-0.51987 -5.99837,-0.91089c-0.14223,-0.15987 -0.20236,-0.34348 -0.17875,-0.54584c0.07771,-0.66387 1.56682,-0.83928 2.85541,-0.91797c0.08662,-0.00525 0.16131,-0.00984 0.18334,-0.01279c0.08892,-0.01161 0.1703,0.04918 0.18393,0.13744c0.01364,0.08826 -0.04584,0.17121 -0.13384,0.18656c-0.78098,0.13633 -1.51528,0.37751 -1.6204,0.52839c0.27253,0.22649 2.34866,0.61502 5.18552,0.61502c0.46374,-0.00007 0.91895,-0.01148 1.35299,-0.0341c3.1684,-0.16066 5.07135,-0.69554 5.26001,-0.87174c0.0842,-0.08426 0.06754,-0.14623 0.03875,-0.18328c-0.05351,-0.06157 -0.05226,-0.15161 0.00105,-0.21331c0.05344,-0.06164 0.14538,-0.07318 0.2139,-0.02911c0.02846,0.0183 0.27889,0.18662 0.31397,0.46164c0.01423,0.11174 -0.0038,0.28282 -0.17089,0.46361c-0.47194,0.51082 -2.92184,1.32256 -7.48644,1.32643c-0.00007,0 -0.00007,0 -0.0002,-0.00007zM31.243,32.00314c-0.00597,0.05036 -0.17377,1.23889 -2.57069,1.65908c-1.28551,0.22413 -2.64637,0.33777 -4.04486,0.33777c-2.91581,0 -5.04834,-0.49961 -5.06952,-0.50466c-0.0821,-0.01954 -0.136,-0.0983 -0.12439,-0.18197c0.01154,-0.08367 0.08426,-0.14544 0.16925,-0.14131c0.02033,0.00085 2.05515,0.08498 4.19365,0.08498c2.1345,0 3.61732,-0.08026 4.40729,-0.23856c2.06341,-0.42138 2.74964,-1.13902 2.7564,-1.14623c0.0482,-0.05193 0.12439,-0.06702 0.18892,-0.03718c0.06439,0.02984 0.1023,0.09764 0.09397,0.16807z" id="XMLID_8_ 1 1" fill="none" stroke-width="0"></path><path d="M26.01221,11.54091c0.9128,-1.65217 0.58474,-3.25584 0.58133,-3.27181c-0.02415,-0.11286 0.03437,-0.22718 0.14003,-0.27372c0.10575,-0.04645 0.22942,-0.01227 0.29641,0.0818c0.01724,0.02415 1.70407,2.44918 0.18638,4.91541c-0.69136,1.1204 -1.87292,2.07818 -2.91532,2.92321c-1.13812,0.92263 -2.21314,1.79404 -2.23398,2.56214c-0.05881,2.20565 1.52392,5.27998 1.53989,5.31075c0.05258,0.10127 0.02775,0.22562 -0.05979,0.29884c-0.04518,0.03778 -0.10078,0.05677 -0.15629,0.05677c-0.05229,0 -0.10468,-0.01675 -0.1485,-0.05054c-0.18842,-0.14509 -4.59786,-3.58945 -3.15038,-6.74694c0.83334,-1.80991 2.38871,-2.90392 3.76102,-3.86911c0.95681,-0.67286 1.78304,-1.2541 2.1592,-1.93679zM26.19966,17.80574c-0.52592,0.95223 -0.17927,1.46783 0.30069,2.1815c0.30985,0.46068 0.66098,0.98281 0.80841,1.69725c0.39583,1.87983 -1.81098,3.44007 -1.90515,3.50561c-0.04197,0.02921 -0.09056,0.04362 -0.13895,0.04362c-0.05687,0 -0.11364,-0.01986 -0.15911,-0.05911c-0.08413,-0.07264 -0.10838,-0.1931 -0.05891,-0.29261c0.17158,-0.34588 0.57967,-1.36734 0.40742,-1.93251c-0.06115,-0.19611 -0.24685,-0.42582 -0.46195,-0.69175c-0.54832,-0.67822 -1.29928,-1.60698 -1.29928,-3.3649c0,-2.55036 5.4757,-4.66096 5.70882,-4.74958c0.11334,-0.04304 0.241,0.0038 0.29962,0.10994c0.05862,0.10614 0.03019,0.23915 -0.0666,0.31209c-0.02814,0.02113 -2.81862,2.12999 -3.43501,3.24045zM20.31333,24.01838c0.12532,0 0.2301,0.09514 0.24227,0.21987c0.01217,0.12474 -0.07235,0.23828 -0.19533,0.26243c-1.28662,0.25308 -2.32493,0.66585 -2.49329,0.89702c0.32806,0.13993 1.66814,0.32942 4.29951,0.32942c2.35161,0 5.74202,-0.17596 7.55759,-0.67169c0.11013,-0.03028 0.22542,0.02006 0.27888,0.12026c0.05346,0.1003 0.03048,0.22426 -0.0555,0.29865c-0.07887,0.06826 -1.99103,1.67427 -7.14637,1.85889c-0.47246,0.01694 -0.93373,0.02551 -1.37065,0.02551c-0.0001,0 -0.00019,0 -0.00039,0c-3.22448,0 -5.32701,-0.45387 -5.92061,-1.27786c-0.17761,-0.24665 -0.22192,-0.52563 -0.12805,-0.80656c0.39534,-1.19528 4.17769,-1.25585 4.93196,-1.25595zM34.97366,25.79168c0.53177,2.92856 -4.49796,4.03689 -4.71238,4.08265c-0.01694,0.0037 -0.03398,0.00545 -0.05083,0.00545c-0.0964,0 -0.18589,-0.05745 -0.22435,-0.14928c-0.04528,-0.10779 -0.0074,-0.23263 0.09017,-0.29719c0.90335,-0.59769 3.20822,-2.39115 3.02808,-3.49801c-0.20342,-1.28302 -2.44899,-1.30132 -2.47158,-1.30142c-0.11159,-0.0001 -0.20887,-0.07615 -0.23594,-0.18433c-0.02697,-0.10828 0.02288,-0.22104 0.12123,-0.27372c0.04246,-0.02269 1.05078,-0.55553 2.11411,-0.55553c0.88904,0 2.01703,0.37665 2.34149,2.17137zM29.00183,29.26662c-0.03798,0.00945 -3.836,0.93899 -6.79864,0.93899c-0.00019,0 -0.00029,0 -0.00049,0c-0.29008,0 -0.56721,-0.00896 -0.82341,-0.02649c-1.78168,-0.12357 -3.88917,-0.59058 -3.96561,-1.50036c-0.04304,-0.51317 0.54851,-0.92146 1.7583,-1.21339c0.12542,-0.03019 0.25249,0.04246 0.28998,0.16573c0.03759,0.12328 -0.02756,0.25454 -0.1484,0.29923c-0.10945,0.04138 -0.27917,0.14606 -0.31082,0.23419c-0.00409,0.0112 -0.01139,0.03135 0.01169,0.07566c0.1743,0.15775 1.37124,0.37285 3.2018,0.37285c0.81338,0 1.62734,-0.04304 2.35405,-0.12454c1.83104,-0.20332 3.09225,-0.53478 3.10481,-0.5381c0.06904,-0.01831 0.14334,-0.00536 0.20215,0.03583l1.20599,0.84473c0.07809,0.05472 0.11714,0.15015 0.09961,0.24402c-0.01762,0.09387 -0.08832,0.16875 -0.18102,0.19163zM20.04555,31.12629c0.31121,0.156 1.93387,0.39437 3.39275,0.39437c0.40605,0 0.75213,-0.01909 1.02848,-0.05658c1.46043,-0.19835 2.42815,-0.39904 2.43779,-0.40109c0.06037,-0.01237 0.12367,-0.00166 0.17654,0.03058l1.52412,0.93042c0.07634,0.04664 0.12094,0.13146 0.11617,0.22075c-0.00477,0.08939 -0.05813,0.16885 -0.13905,0.20712c-0.08345,0.03944 -2.07643,0.96596 -5.03566,0.96596c-0.27645,0 -0.55611,-0.00828 -0.83149,-0.02473c-2.32766,-0.13506 -3.70805,-0.49525 -4.21946,-1.10131c-0.18336,-0.21724 -0.26097,-0.46477 -0.23078,-0.73577c0.09971,-0.90686 1.52402,-0.97112 1.68615,-0.97541c0.10926,-0.00136 0.20653,0.0669 0.23886,0.17089c0.03243,0.104 -0.00808,0.21685 -0.09942,0.27635c-0.04372,0.03213 -0.04947,0.06914 -0.04499,0.09845zM22.16725,36.21522c-6.90517,0 -8.39063,-0.77199 -8.9074,-1.35264c-0.21121,-0.2374 -0.3005,-0.51005 -0.26544,-0.81055c0.11539,-0.98583 2.32668,-1.24631 4.24021,-1.36316c0.12863,-0.00779 0.23954,-0.01461 0.27226,-0.01899c0.13204,-0.01724 0.25288,0.07303 0.27314,0.2041c0.02025,0.13107 -0.06807,0.25425 -0.19874,0.27703c-1.15974,0.20244 -2.25015,0.56059 -2.40624,0.78465c0.40469,0.33633 3.48769,0.91328 7.70034,0.91328c0.68864,-0.0001 1.36462,-0.01704 2.00914,-0.05064c4.70498,-0.23857 7.53081,-1.03286 7.81096,-1.29451c0.12503,-0.12513 0.1003,-0.21715 0.05755,-0.27216c-0.07946,-0.09144 -0.07761,-0.22513 0.00156,-0.31676c0.07936,-0.09153 0.21588,-0.10867 0.31764,-0.04323c0.04226,0.02717 0.41414,0.27713 0.46623,0.68552c0.02113,0.16593 -0.00565,0.41998 -0.25376,0.68844c-0.70081,0.75855 -4.33885,1.96396 -11.11714,1.96971c-0.0001,0 -0.0001,0 -0.00029,-0.0001zM34.75564,34.70892c-0.00886,0.07478 -0.25804,1.83971 -3.8174,2.46369c-1.90894,0.33283 -3.92977,0.50158 -6.0065,0.50158c-4.32989,0 -7.49663,-0.7419 -7.52808,-0.7494c-0.12191,-0.02902 -0.20196,-0.14597 -0.18472,-0.27022c0.01714,-0.12425 0.12513,-0.21598 0.25133,-0.20984c0.03019,0.00127 3.05184,0.1262 6.22744,0.1262c3.16966,0 5.37161,-0.11919 6.54469,-0.35425c3.06411,-0.62573 4.08314,-1.69141 4.09317,-1.70212c0.07157,-0.07712 0.18472,-0.09952 0.28054,-0.05521c0.09562,0.04431 0.15191,0.14499 0.13954,0.24957z" id="XMLID_8_ 1 1" fill="#02cb6d" stroke-width="0"></path><path d="M2,24c0,-12.15026 9.84974,-22 22,-22c12.15026,0 22,9.84974 22,22c0,12.15026 -9.84974,22 -22,22c-12.15026,0 -22,-9.84974 -22,-22z" id="base 1 1 1" fill="none" stroke-width="1"></path><g id="Layer_1 1 1" fill="#000000" stroke-width="1" font-family="Roboto, sans-serif" font-weight="normal" font-size="14" text-anchor="start"><g id="XMLID_7_ 1 1"></g><g></g><g></g><g></g><g></g><g></g><g></g><g></g><g></g><g></g><g></g><g></g><g></g><g></g><g></g><g></g></g><rect x="2" y="2" width="44" height="22" fill="none" stroke-width="1"></rect><path d="M2,24v-22h44v22z" fill="none" stroke-width="1"></path><path d="M2,24v-22h44v22z" fill="none" stroke-width="1"></path><path d="M2,24v-22h44v22z" fill="none" stroke-width="1"></path><path d="M2,24v-22h44v22z" fill="none" stroke-width="1"></path></g></svg>