<svg version="1.1" xmlns="http://www.w3.org/2000/svg" xmlns:xlink="http://www.w3.org/1999/xlink" width="48" height="48"><defs><linearGradient x1="15.27238" y1="12.23187" x2="58.27901" y2="61.3195" gradientUnits="userSpaceOnUse" id="color-1"><stop offset="0" stop-color="#000000" stop-opacity="0.3"></stop><stop offset="1" stop-color="#000000" stop-opacity="0"></stop></linearGradient><filter id="dropshadow-base"><feColorMatrix type="matrix" values="0 0 0 0 0  0 0 0 0 0  0 0 0 0 0  0 0 0 .8 0"></feColorMatrix> <feOffset dx="0" dy="1"></feOffset> <feGaussianBlur stdDeviation="1"></feGaussianBlur> <feComposite in="SourceGraphic"></feComposite></filter><filter id="dropshadow-banner" x="-10%" y="-10%" width="120%" height="130%"><feColorMatrix type="matrix" values="0 0 0 0 0  0 0 0 0 0  0 0 0 0 0  0 0 0 .4 0"></feColorMatrix> <feOffset dx="0" dy="1"></feOffset> <feGaussianBlur stdDeviation="0.5"></feGaussianBlur> <feComposite in="SourceGraphic"></feComposite></filter></defs><g fill="none" fill-rule="nonzero" stroke="none" stroke-width="none" stroke-linecap="butt" stroke-linejoin="miter" stroke-miterlimit="10" stroke-dasharray="" stroke-dashoffset="0" font-family="none" font-weight="none" font-size="none" text-anchor="none" style="mix-blend-mode: normal"><path d="M7,43c-1.10457,0 -2,-0.89543 -2,-2v-34c0,-1.10457 0.89543,-2 2,-2h34c1.10457,0 2,0.89543 2,2v34c0,1.10457 -0.89543,2 -2,2z" id="base 1 5" fill="#20242a" stroke-width="1"></path><path d="M26.16631,12.24819c0.0738,-0.03242 0.15861,-0.01528 0.21407,0.04018l16.61962,16.61962v12.09201c0,1.10457 -0.89543,2 -2,2h-16.05423l-9.40912,-9.40912c0,0 0,0 0,0c-0.01714,-0.01714 -0.0331,-0.03412 -0.04803,-0.0509c-0.16738,-0.18814 -0.23814,-0.40421 -0.21036,-0.64235c0.09145,-0.78125 1.84385,-0.98768 3.36028,-1.08028c0.10194,-0.00618 0.18983,-0.01158 0.21576,-0.01505c0.06226,-0.00813 0.12137,0.0139 0.16243,0.05495l1.58286,1.58286c0.32666,0.02385 0.67057,0.04376 1.02971,0.05867l-1.93608,-1.93608c-0.01966,-0.01966 -0.03809,-0.03968 -0.05527,-0.06004c-0.14531,-0.17217 -0.20681,-0.36832 -0.18289,-0.58309c0.04356,-0.3962 0.40617,-0.58945 0.74432,-0.68368l-1.23094,-1.23094c-0.1101,-0.1101 -0.17674,-0.23178 -0.18798,-0.36553c-0.01174,-0.13994 0.03608,-0.27003 0.1429,-0.38992l-1.5515,-1.5515c-0.03799,-0.03799 -0.07151,-0.07711 -0.1005,-0.11734c-0.14076,-0.19547 -0.17586,-0.41656 -0.10148,-0.63919c0.3133,-0.94724 3.31075,-0.99524 3.90849,-0.99531l0,-0.00001c0.053,0 0.10136,0.02147 0.1364,0.05652l1.29763,1.29763c0.01149,0.00001 0.02301,0.00001 0.03456,0.00001l2.15862,2.15862c0.76062,-0.0937 1.3776,-0.21119 1.76383,-0.29392l-3.91687,-3.91687c-1.00542,-1.00542 -2.44589,-2.85203 -1.64957,-4.58909c0.6604,-1.43432 1.89301,-2.30131 2.98055,-3.0662c0.75825,-0.53324 1.41302,-0.99385 1.71113,-1.53486l-0.00002,-0.00002c0.72338,-1.30931 0.46339,-2.5802 0.4607,-2.59285c-0.01913,-0.08944 0.02724,-0.18003 0.11097,-0.21692z" fill="url(#color-1)" stroke-width="1"></path><path transform="translate(-4.24352,-4.24352) scale(1.17681,1.17681)" d="M25.35505,16.40148c0.61469,-1.11259 0.39377,-2.19253 0.39148,-2.20328c-0.01626,-0.076 0.02315,-0.15298 0.0943,-0.18433c0.07121,-0.03128 0.15449,-0.00826 0.19961,0.05508c0.01161,0.01626 1.14754,1.64931 0.12551,3.3101c-0.46557,0.75449 -1.26125,1.39948 -1.96322,1.96853c-0.76643,0.62131 -1.49036,1.20813 -1.5044,1.72538c-0.03961,1.48531 1.02623,3.55561 1.03699,3.57633c0.03541,0.0682 0.01869,0.15193 -0.04026,0.20125c-0.03043,0.02544 -0.06787,0.03823 -0.10525,0.03823c-0.03521,0 -0.07049,-0.01128 -0.1,-0.03403c-0.12689,-0.09771 -3.09627,-2.41718 -2.12151,-4.54348c0.56118,-1.21882 1.60859,-1.95554 2.53273,-2.60551c0.64433,-0.45312 1.20072,-0.84453 1.45404,-1.30426zM25.48128,20.62031c-0.35416,0.64125 -0.12072,0.98846 0.20249,1.46905c0.20866,0.31023 0.44512,0.66184 0.54439,1.14295c0.26656,1.2659 -1.21954,2.31659 -1.28295,2.36073c-0.02826,0.01967 -0.06098,0.02938 -0.09357,0.02938c-0.0383,0 -0.07652,-0.01338 -0.10715,-0.0398c-0.05666,-0.04892 -0.07298,-0.13003 -0.03967,-0.19705c0.11554,-0.23292 0.39036,-0.92079 0.27436,-1.30138c-0.04118,-0.13207 -0.16623,-0.28675 -0.31108,-0.46584c-0.36925,-0.45672 -0.87495,-1.08217 -0.87495,-2.26597c0,-1.71745 3.68742,-3.13876 3.8444,-3.19843c0.07633,-0.02898 0.1623,0.00256 0.20177,0.07403c0.03948,0.07148 0.02033,0.16105 -0.04485,0.21016c-0.01895,0.01423 -1.8981,1.43436 -2.31318,2.18217zM21.51734,24.80398c0.08439,0 0.15495,0.06407 0.16315,0.14807c0.0082,0.084 -0.04872,0.16046 -0.13154,0.17672c-0.86643,0.17043 -1.56564,0.44839 -1.67902,0.60407c0.22092,0.09423 1.12335,0.22184 2.89535,0.22184c1.58361,0 3.86676,-0.11849 5.08939,-0.45233c0.07416,-0.02039 0.1518,0.01351 0.1878,0.08098c0.036,0.06754 0.02052,0.15102 -0.03738,0.20112c-0.05311,0.04597 -1.34079,1.12748 -4.81247,1.25181c-0.31816,0.01141 -0.62879,0.01718 -0.92302,0.01718c-0.00007,0 -0.00013,0 -0.00026,0c-2.17141,0 -3.58728,-0.30564 -3.98702,-0.86053c-0.11961,-0.1661 -0.14944,-0.35397 -0.08623,-0.54315c0.26623,-0.80492 2.81332,-0.84571 3.32125,-0.84577zM31.38982,25.99815c0.3581,1.97213 -3.02899,2.7185 -3.17338,2.74932c-0.01141,0.00249 -0.02289,0.00367 -0.03423,0.00367c-0.06492,0 -0.12518,-0.03869 -0.15108,-0.10052c-0.03049,-0.07259 -0.00498,-0.15666 0.06072,-0.20013c0.60833,-0.40249 2.16046,-1.61023 2.03915,-2.35561c-0.13698,-0.864 -1.64918,-0.87633 -1.6644,-0.87639c-0.07515,-0.00007 -0.14066,-0.05128 -0.15889,-0.12413c-0.01816,-0.07292 0.01541,-0.14885 0.08164,-0.18433c0.02859,-0.01528 0.70761,-0.3741 1.42367,-0.3741c0.59869,0 1.3583,0.25364 1.57679,1.46223zM27.3683,28.33822c-0.02557,0.00636 -2.58322,0.63233 -4.5783,0.63233c-0.00013,0 -0.0002,0 -0.00033,0c-0.19534,0 -0.38197,-0.00603 -0.55449,-0.01784c-1.19981,-0.08321 -2.61902,-0.39771 -2.6705,-1.01036c-0.02898,-0.34557 0.36938,-0.62053 1.18407,-0.81712c0.08446,-0.02033 0.17003,0.02859 0.19528,0.11161c0.02531,0.08302 -0.01856,0.17141 -0.09993,0.20151c-0.07371,0.02787 -0.188,0.09836 -0.20931,0.15771c-0.00275,0.00754 -0.00767,0.02111 0.00787,0.05095c0.11738,0.10623 0.92341,0.25108 2.15613,0.25108c0.54774,0 1.09587,-0.02898 1.58525,-0.08387c1.23305,-0.13692 2.08236,-0.36013 2.09082,-0.36236c0.04649,-0.01233 0.09652,-0.00361 0.13613,0.02413l0.81213,0.56885c0.05259,0.03685 0.07889,0.10111 0.06708,0.16433c-0.01187,0.06321 -0.05948,0.11364 -0.1219,0.12905zM21.33701,29.59055c0.20957,0.10505 1.3023,0.26557 2.28473,0.26557c0.27344,0 0.50649,-0.01285 0.69259,-0.0381c0.98348,-0.13357 1.63515,-0.26872 1.64164,-0.2701c0.04066,-0.00833 0.08328,-0.00111 0.11889,0.02059l1.02636,0.62656c0.05141,0.03141 0.08144,0.08852 0.07823,0.14866c-0.00321,0.0602 -0.03915,0.11371 -0.09364,0.13948c-0.0562,0.02656 -1.3983,0.65049 -3.39109,0.65049c-0.18616,0 -0.37449,-0.00557 -0.55994,-0.01666c-1.56748,-0.09095 -2.49705,-0.33351 -2.84145,-0.74164c-0.12348,-0.1463 -0.17574,-0.31298 -0.15541,-0.49548c0.06715,-0.61069 1.0263,-0.65397 1.13548,-0.65685c0.07357,-0.00092 0.13908,0.04505 0.16085,0.11508c0.02184,0.07003 -0.00544,0.14603 -0.06695,0.1861c-0.02944,0.02164 -0.03331,0.04656 -0.0303,0.0663zM22.7658,33.01751c-4.65004,0 -5.65037,-0.51987 -5.99837,-0.91089c-0.14223,-0.15987 -0.20236,-0.34348 -0.17875,-0.54584c0.07771,-0.66387 1.56682,-0.83928 2.85541,-0.91797c0.08662,-0.00525 0.16131,-0.00984 0.18334,-0.01279c0.08892,-0.01161 0.1703,0.04918 0.18393,0.13744c0.01364,0.08826 -0.04584,0.17121 -0.13384,0.18656c-0.78098,0.13633 -1.51528,0.37751 -1.6204,0.52839c0.27253,0.22649 2.34866,0.61502 5.18552,0.61502c0.46374,-0.00007 0.91895,-0.01148 1.35299,-0.0341c3.1684,-0.16066 5.07135,-0.69554 5.26001,-0.87174c0.0842,-0.08426 0.06754,-0.14623 0.03875,-0.18328c-0.05351,-0.06157 -0.05226,-0.15161 0.00105,-0.21331c0.05344,-0.06164 0.14538,-0.07318 0.2139,-0.02911c0.02846,0.0183 0.27889,0.18662 0.31397,0.46164c0.01423,0.11174 -0.0038,0.28282 -0.17089,0.46361c-0.47194,0.51082 -2.92184,1.32256 -7.48644,1.32643c-0.00007,0 -0.00007,0 -0.0002,-0.00007zM31.243,32.00314c-0.00597,0.05036 -0.17377,1.23889 -2.57069,1.65908c-1.28551,0.22413 -2.64637,0.33777 -4.04486,0.33777c-2.91581,0 -5.04834,-0.49961 -5.06952,-0.50466c-0.0821,-0.01954 -0.136,-0.0983 -0.12439,-0.18197c0.01154,-0.08367 0.08426,-0.14544 0.16925,-0.14131c0.02033,0.00085 2.05515,0.08498 4.19365,0.08498c2.1345,0 3.61732,-0.08026 4.40729,-0.23856c2.06341,-0.42138 2.74964,-1.13902 2.7564,-1.14623c0.0482,-0.05193 0.12439,-0.06702 0.18892,-0.03718c0.06439,0.02984 0.1023,0.09764 0.09397,0.16807z" id="XMLID_8_ 1 1" fill="none" stroke-width="0"></path><path d="M25.59465,15.05796c0.72337,-1.30931 0.4634,-2.5802 0.46069,-2.59285c-0.01914,-0.08944 0.02724,-0.18003 0.11097,-0.21692c0.0838,-0.03681 0.18181,-0.00972 0.2349,0.06482c0.01366,0.01914 1.35044,1.94093 0.1477,3.89537c-0.54789,0.8879 -1.48425,1.64692 -2.31034,2.31659c-0.90194,0.73117 -1.75388,1.42175 -1.77039,2.03045c-0.04661,1.74794 1.20768,4.18429 1.22034,4.20868c0.04167,0.08025 0.02199,0.1788 -0.04738,0.23683c-0.03581,0.02994 -0.07987,0.04499 -0.12385,0.04499c-0.04144,0 -0.08296,-0.01327 -0.11768,-0.04005c-0.14932,-0.11498 -3.64373,-2.84457 -2.49662,-5.34683c0.66041,-1.43433 1.89301,-2.30131 2.98054,-3.0662c0.75825,-0.53323 1.41303,-0.99385 1.71113,-1.53488zM25.74319,20.02273c-0.41679,0.75463 -0.14207,1.16323 0.2383,1.7288c0.24555,0.36508 0.52382,0.77886 0.64065,1.34504c0.31369,1.48973 -1.43517,2.7262 -1.5098,2.77813c-0.03326,0.02315 -0.07177,0.03457 -0.11012,0.03457c-0.04507,0 -0.09006,-0.01574 -0.12609,-0.04684c-0.06667,-0.05757 -0.08589,-0.15302 -0.04669,-0.23189c0.13597,-0.2741 0.45938,-1.0836 0.32287,-1.53148c-0.04846,-0.15542 -0.19562,-0.33746 -0.36609,-0.5482c-0.43453,-0.53748 -1.02966,-1.27351 -1.02966,-2.66662c0,-2.02111 4.3394,-3.69373 4.52414,-3.76396c0.08982,-0.03411 0.19099,0.00301 0.23745,0.08712c0.04646,0.08411 0.02392,0.18953 -0.05278,0.24732c-0.0223,0.01675 -2.23371,1.68798 -2.72219,2.568zM21.07838,24.94614c0.09932,0 0.18235,0.07539 0.19199,0.17425c0.00965,0.09885 -0.05734,0.18883 -0.1548,0.20797c-1.01962,0.20056 -1.84247,0.52768 -1.97589,0.71087c0.25998,0.11089 1.32197,0.26106 3.40729,0.26106c1.86361,0 4.55046,-0.13944 5.98926,-0.53231c0.08728,-0.024 0.17864,0.0159 0.22101,0.0953c0.04237,0.07948 0.02415,0.17772 -0.04399,0.23667c-0.06251,0.05409 -1.57786,1.32683 -5.66338,1.47314c-0.37442,0.01343 -0.73997,0.02022 -1.08622,0.02022c-0.00008,0 -0.00015,0 -0.00031,0c-2.55535,0 -4.22156,-0.35968 -4.69198,-1.01268c-0.14075,-0.19547 -0.17587,-0.41655 -0.10148,-0.63918c0.3133,-0.94724 3.31075,-0.99524 3.90849,-0.99532zM32.69644,26.35145c0.42142,2.32083 -3.56455,3.19916 -3.73448,3.23543c-0.01343,0.00293 -0.02693,0.00432 -0.04028,0.00432c-0.0764,0 -0.14731,-0.04553 -0.1778,-0.1183c-0.03588,-0.08543 -0.00586,-0.18435 0.07146,-0.23552c0.71589,-0.47366 2.54246,-1.89494 2.3997,-2.77211c-0.1612,-1.01677 -1.94078,-1.03128 -1.95868,-1.03135c-0.08843,-0.00008 -0.16553,-0.06035 -0.18698,-0.14608c-0.02138,-0.08581 0.01813,-0.17517 0.09607,-0.21692c0.03365,-0.01798 0.83272,-0.44024 1.6754,-0.44024c0.70455,0 1.59846,0.29849 1.85559,1.72077zM27.96386,29.10527c-0.0301,0.00749 -3.03996,0.74413 -5.38781,0.74413c-0.00015,0 -0.00023,0 -0.00039,0c-0.22988,0 -0.4495,-0.0071 -0.65253,-0.02099c-1.41195,-0.09793 -3.0821,-0.46803 -3.14268,-1.18901c-0.03411,-0.40668 0.43469,-0.73024 1.39343,-0.96159c0.09939,-0.02392 0.2001,0.03365 0.22981,0.13134c0.02979,0.09769 -0.02184,0.20172 -0.1176,0.23714c-0.08674,0.0328 -0.22124,0.11575 -0.24632,0.18559c-0.00324,0.00887 -0.00903,0.02485 0.00926,0.05996c0.13813,0.12501 1.08668,0.29548 2.53737,0.29548c0.64459,0 1.28964,-0.03411 1.86554,-0.0987c1.45107,-0.16113 2.45055,-0.42381 2.46051,-0.42643c0.05471,-0.01451 0.11359,-0.00424 0.1602,0.0284l0.95573,0.66943c0.06189,0.04337 0.09283,0.11899 0.07894,0.19338c-0.01397,0.07439 -0.06999,0.13373 -0.14346,0.15187zM20.86616,30.57903c0.24663,0.12362 1.53256,0.31253 2.68869,0.31253c0.32179,0 0.59605,-0.01512 0.81505,-0.04483c1.15737,-0.15719 1.92427,-0.31624 1.93191,-0.31786c0.04784,-0.0098 0.098,-0.00131 0.13991,0.02423l1.20784,0.73734c0.0605,0.03696 0.09584,0.10418 0.09206,0.17494c-0.00378,0.07084 -0.04607,0.13381 -0.1102,0.16414c-0.06613,0.03125 -1.64553,0.76551 -3.99068,0.76551c-0.21908,0 -0.44071,-0.00656 -0.65894,-0.0196c-1.84463,-0.10703 -2.93857,-0.39248 -3.34385,-0.87277c-0.14531,-0.17216 -0.20681,-0.36832 -0.18289,-0.58308c0.07902,-0.71867 1.20776,-0.7696 1.33624,-0.77299c0.08658,-0.00108 0.16367,0.05301 0.18929,0.13543c0.0257,0.08242 -0.0064,0.17185 -0.07879,0.219c-0.03465,0.02547 -0.0392,0.05479 -0.03565,0.07802zM22.54758,34.61192c-5.47223,0 -6.64943,-0.61179 -7.05896,-1.07194c-0.16738,-0.18814 -0.23814,-0.40421 -0.21036,-0.64235c0.09144,-0.78125 1.84386,-0.98768 3.36029,-1.08028c0.10194,-0.00617 0.18983,-0.01158 0.21576,-0.01505c0.10464,-0.01366 0.20041,0.05788 0.21646,0.16174c0.01605,0.10387 -0.05394,0.20149 -0.1575,0.21954c-0.91907,0.16043 -1.7832,0.44426 -1.9069,0.62182c0.32071,0.26654 2.76393,0.72376 6.10238,0.72376c0.54573,-0.00008 1.08144,-0.0135 1.59221,-0.04013c3.72861,-0.18906 5.96804,-0.81852 6.19005,-1.02587c0.09908,-0.09916 0.07948,-0.17209 0.04561,-0.21569c-0.06297,-0.07246 -0.0615,-0.17841 0.00123,-0.25103c0.06289,-0.07254 0.17108,-0.08612 0.25172,-0.03426c0.03349,0.02153 0.3282,0.21962 0.36948,0.54326c0.01675,0.13149 -0.00448,0.33283 -0.2011,0.54558c-0.55538,0.60114 -3.43846,1.55641 -8.81014,1.56096c-0.00008,0 -0.00008,0 -0.00023,-0.00008zM32.52366,33.41821c-0.00702,0.05927 -0.2045,1.45794 -3.02523,1.95243c-1.51281,0.26376 -3.11428,0.39749 -4.76004,0.39749c-3.43136,0 -5.94095,-0.58794 -5.96587,-0.59389c-0.09661,-0.023 -0.16005,-0.11568 -0.14639,-0.21414c0.01358,-0.09847 0.09916,-0.17116 0.19917,-0.1663c0.02392,0.001 2.41853,0.10001 4.93514,0.10001c2.5119,0 4.25691,-0.09445 5.18655,-0.28074c2.42825,-0.49588 3.23582,-1.34041 3.24377,-1.3489c0.05672,-0.06112 0.14639,-0.07887 0.22232,-0.04375c0.07578,0.03511 0.12038,0.1149 0.11058,0.19778z" id="XMLID_8_ 1 1" fill="#02cb6d" stroke-width="0"></path><path d="M2,24c0,-12.15026 9.84974,-22 22,-22c12.15026,0 22,9.84974 22,22c0,12.15026 -9.84974,22 -22,22c-12.15026,0 -22,-9.84974 -22,-22z" id="base 1 1 1" fill="none" stroke-width="1"></path><g id="Layer_1 1 1" fill="#000000" stroke-width="1" font-family="Roboto, sans-serif" font-weight="normal" font-size="14" text-anchor="start"><g id="XMLID_7_ 1 1"></g><g></g><g></g><g></g><g></g><g></g><g></g><g></g><g></g><g></g><g></g><g></g><g></g><g></g><g></g><g></g></g><rect x="2" y="2" width="44" height="22" fill="none" stroke-width="1"></rect><path d="M2,24v-22h44v22z" fill="none" stroke-width="1"></path><path d="M2,24v-22h44v22z" fill="none" stroke-width="1"></path><path d="M2,24v-22h44v22z" fill="none" stroke-width="1"></path><path d="M2,24v-22h44v22z" fill="none" stroke-width="1"></path></g></svg>