<svg version="1.1" xmlns="http://www.w3.org/2000/svg" xmlns:xlink="http://www.w3.org/1999/xlink" width="48" height="48"><defs><linearGradient x1="13.96539" y1="10.4695" x2="63.41248" y2="66.90838" gradientUnits="userSpaceOnUse" id="color-1"><stop offset="0.05" stop-color="#000000" stop-opacity="0.11"></stop><stop offset="1" stop-color="#000000" stop-opacity="0"></stop></linearGradient><filter id="dropshadow-base"><feColorMatrix type="matrix" values="0 0 0 0 0  0 0 0 0 0  0 0 0 0 0  0 0 0 .8 0"></feColorMatrix> <feOffset dx="0" dy="1"></feOffset> <feGaussianBlur stdDeviation="1"></feGaussianBlur> <feComposite in="SourceGraphic"></feComposite></filter><filter id="dropshadow-banner" x="-10%" y="-10%" width="120%" height="130%"><feColorMatrix type="matrix" values="0 0 0 0 0  0 0 0 0 0  0 0 0 0 0  0 0 0 .4 0"></feColorMatrix> <feOffset dx="0" dy="1"></feOffset> <feGaussianBlur stdDeviation="0.5"></feGaussianBlur> <feComposite in="SourceGraphic"></feComposite></filter></defs><g fill="none" fill-rule="nonzero" stroke="none" stroke-width="none" stroke-linecap="butt" stroke-linejoin="miter" stroke-miterlimit="10" stroke-dasharray="" stroke-dashoffset="0" font-family="none" font-weight="none" font-size="none" text-anchor="none" style="mix-blend-mode: normal"><path d="M7,43c-1.10457,0 -2,-0.89543 -2,-2v-34c0,-1.10457 0.89543,-2 2,-2h34c1.10457,0 2,0.89543 2,2v34c0,1.10457 -0.89543,2 -2,2z" id="base 1 5" fill="#ffffff" stroke-width="1"></path><path d="M26.49057,10.48823c0.08485,-0.03719 0.18237,-0.01757 0.24613,0.0462l16.2633,16.2633v14.20227c0,1.10457 -0.89543,2 -2,2h-18.75798l-7.9728,-7.9728c-0.01971,-0.01971 -0.03805,-0.03923 -0.05522,-0.05852c-0.19244,-0.21627 -0.27378,-0.4648 -0.24186,-0.73852c0.10513,-0.89836 2.11996,-1.13561 3.86348,-1.24206c0.11712,-0.00718 0.21829,-0.01322 0.2481,-0.01728c0.07162,-0.00927 0.13959,0.01607 0.1868,0.06327l1.81993,1.81993c0.37561,0.02742 0.77107,0.05033 1.18402,0.06747l-2.22618,-2.22618c-0.02261,-0.02261 -0.04379,-0.04562 -0.06355,-0.06904c-0.16707,-0.19794 -0.23778,-0.42357 -0.2103,-0.6705c0.05008,-0.45546 0.4669,-0.67765 0.85566,-0.78601l-1.41517,-1.41517c-0.12661,-0.12661 -0.20324,-0.26654 -0.21616,-0.42035c-0.01349,-0.16088 0.04146,-0.31045 0.16426,-0.44827l-1.78381,-1.78381c-0.0437,-0.0437 -0.08226,-0.0887 -0.11559,-0.13498c-0.16178,-0.22473 -0.20216,-0.47875 -0.11665,-0.73483c0.36025,-1.0892 3.80656,-1.14438 4.49377,-1.14438c0.06095,0 0.11656,0.02469 0.15686,0.06498l1.49201,1.49201c0.0132,0.00001 0.02643,0.00002 0.0397,0.00002l2.48171,2.48171c0.87456,-0.10773 1.58397,-0.24285 2.02807,-0.33797l-4.50351,-4.50351c-1.156,-1.156 -2.81204,-3.27905 -1.8965,-5.27625c0.75934,-1.64908 2.17652,-2.64585 3.42692,-3.52528c0.87182,-0.61315 1.62466,-1.14264 1.96727,-1.76473l0.00001,0c0.83171,-1.50543 0.53282,-2.96661 0.52969,-2.98125c-0.02199,-0.1029 0.03134,-0.20698 0.12759,-0.24948z" fill="url(#color-1)" stroke-width="1"></path><path transform="translate(-8.47319,-8.47319) scale(1.35305,1.35305)" d="M25.35493,16.40158c0.61469,-1.11262 0.39379,-2.19254 0.39148,-2.20336c-0.01625,-0.07605 0.02316,-0.15297 0.0943,-0.18438c0.07121,-0.03121 0.15449,-0.00828 0.19961,0.05508c0.0116,0.01633 1.14754,1.64938 0.12551,3.31016c-0.46555,0.75449 -1.26125,1.39945 -1.96321,1.96852c-0.76641,0.62129 -1.49035,1.20813 -1.50438,1.72543c-0.03961,1.48524 1.02625,3.55555 1.03699,3.57625c0.03539,0.0682 0.01867,0.15195 -0.04027,0.20125c-0.03039,0.02547 -0.06781,0.03824 -0.1052,0.03824c-0.0352,0 -0.07051,-0.01133 -0.1,-0.03402c-0.12691,-0.0977 -3.09629,-2.41711 -2.12153,-4.54348c0.56121,-1.21879 1.6086,-1.95547 2.53274,-2.60543c0.64434,-0.45316 1.20074,-0.84449 1.45395,-1.30426zM25.48141,20.62057c-0.35414,0.64125 -0.1207,0.98844 0.2025,1.4691c0.20863,0.31023 0.44508,0.6618 0.54438,1.14297c0.26652,1.2659 -1.21957,2.3166 -1.28297,2.36067c-0.02828,0.01969 -0.06102,0.02938 -0.09359,0.02938c-0.03828,0 -0.07652,-0.01344 -0.10715,-0.03988c-0.05668,-0.04891 -0.07301,-0.13008 -0.03969,-0.19703c0.11559,-0.23297 0.39043,-0.92086 0.27441,-1.30145c-0.04121,-0.13207 -0.16625,-0.28676 -0.31109,-0.4659c-0.36926,-0.45672 -0.87496,-1.08211 -0.87496,-2.26598c0,-1.71738 3.68739,-3.13875 3.84438,-3.19844c0.07633,-0.02898 0.16227,0.00254 0.20176,0.07402c0.03941,0.07148 0.02027,0.16105 -0.04492,0.21016c-0.01902,0.01422 -1.89813,1.43442 -2.31305,2.18239zM21.51727,24.80409c0.08441,0 0.15496,0.06406 0.16316,0.14805c0.0082,0.08398 -0.04871,0.16047 -0.13152,0.17672c-0.86645,0.17043 -1.56567,0.4484 -1.67903,0.60406c0.22094,0.09426 1.12336,0.22191 2.89536,0.22191c1.5836,0 3.86668,-0.11852 5.08938,-0.45234c0.07418,-0.02043 0.1518,0.01348 0.18781,0.08094c0.03598,0.0675 0.02051,0.15094 -0.03738,0.20105c-0.05313,0.04598 -1.34078,1.12754 -4.81247,1.2518c-0.31816,0.01141 -0.62879,0.01719 -0.92301,0.01719c-0.00008,0 -0.00016,0 -0.00027,0c-2.17141,0 -3.58731,-0.30555 -3.98704,-0.86051c-0.11957,-0.16609 -0.14941,-0.35383 -0.08621,-0.54309c0.26625,-0.805 2.81332,-0.84578 3.32122,-0.84578zM31.38978,25.99819c0.35813,1.97207 -3.02899,2.71848 -3.17336,2.74938c-0.01141,0.00242 -0.02289,0.00359 -0.03422,0.00359c-0.06492,0 -0.12512,-0.03867 -0.15109,-0.10051c-0.03051,-0.07266 -0.005,-0.15664 0.0607,-0.20012c0.60832,-0.4025 2.16047,-1.61024 2.03914,-2.35563c-0.13695,-0.86402 -1.64918,-0.87641 -1.66438,-0.87641c-0.07512,-0.00008 -0.14063,-0.05129 -0.15887,-0.12414c-0.01816,-0.07297 0.01543,-0.14891 0.08164,-0.18438c0.02859,-0.0152 0.70762,-0.3741 1.42367,-0.3741c0.59867,0 1.35828,0.25371 1.57676,1.46231zM27.36825,28.33816c-0.02555,0.00637 -2.58321,0.63234 -4.57829,0.63234c-0.00012,0 -0.0002,0 -0.00031,0c-0.19535,0 -0.38195,-0.00598 -0.55449,-0.01777c-1.19981,-0.08313 -2.61903,-0.39762 -2.67051,-1.01035c-0.02898,-0.34559 0.36938,-0.62051 1.18406,-0.81711c0.08445,-0.02027 0.17004,0.02859 0.19527,0.11168c0.02531,0.08297 -0.01855,0.17133 -0.09992,0.20145c-0.07367,0.02789 -0.18797,0.09836 -0.2093,0.15766c-0.00277,0.00754 -0.0077,0.02109 0.00785,0.05094c0.11738,0.10625 0.9234,0.25109 2.15614,0.25109c0.54774,0 1.09586,-0.02898 1.58524,-0.08387c1.23305,-0.13691 2.08235,-0.3602 2.09082,-0.36234c0.04648,-0.0123 0.09652,-0.00359 0.13613,0.02414l0.81215,0.56887c0.05258,0.03691 0.07887,0.10117 0.06707,0.16434c-0.01184,0.06328 -0.05945,0.11371 -0.12191,0.12895zM21.33703,29.59046c0.20957,0.10512 1.30231,0.26563 2.28473,0.26563c0.27344,0 0.50649,-0.01285 0.69258,-0.03816c0.98348,-0.13352 1.63516,-0.26867 1.64164,-0.27004c0.04063,-0.00832 0.08324,-0.00113 0.11887,0.02059l1.02637,0.62656c0.05141,0.03145 0.08145,0.08852 0.07824,0.14867c-0.0032,0.06016 -0.03914,0.11371 -0.09363,0.13949c-0.05621,0.02656 -1.39832,0.65051 -3.3911,0.65051c-0.18613,0 -0.37449,-0.00559 -0.55992,-0.01672c-1.56746,-0.09086 -2.49707,-0.33344 -2.84145,-0.74156c-0.12348,-0.14629 -0.17574,-0.31305 -0.15543,-0.49555c0.06715,-0.61066 1.02629,-0.65395 1.13547,-0.65684c0.07359,-0.00098 0.1391,0.04504 0.16086,0.11508c0.02184,0.07004 -0.00543,0.14609 -0.06695,0.18609c-0.02945,0.02172 -0.03332,0.04664 -0.03027,0.06625zM22.76582,33.01754c-4.65008,0 -5.65036,-0.51988 -5.99837,-0.9109c-0.14223,-0.15984 -0.20234,-0.34352 -0.17875,-0.54582c0.0777,-0.66395 1.5668,-0.8393 2.85539,-0.91797c0.08656,-0.00531 0.16133,-0.00977 0.18336,-0.01277c0.08895,-0.01152 0.17031,0.04922 0.18395,0.13746c0.01363,0.08828 -0.04582,0.17121 -0.13383,0.18656c-0.78098,0.13641 -1.51535,0.37754 -1.62039,0.52848c0.27254,0.22641 2.34867,0.615 5.18551,0.615c0.46371,-0.00008 0.91895,-0.01156 1.35297,-0.0341c3.1684,-0.1607 5.07133,-0.69559 5.26001,-0.8718c0.08418,-0.08426 0.06754,-0.14625 0.03875,-0.18328c-0.05352,-0.0616 -0.05227,-0.15168 0.00105,-0.21332c0.05344,-0.06164 0.14539,-0.07316 0.21391,-0.0291c0.0284,0.01828 0.27891,0.18664 0.31398,0.46164c0.01418,0.11176 -0.00387,0.28285 -0.17094,0.46356c-0.47195,0.51082 -2.92184,1.32258 -7.48645,1.32645c-0.00008,0 -0.00008,0 -0.00016,-0.00008zM31.24294,32.0032c-0.00598,0.05039 -0.17379,1.23891 -2.57071,1.6591c-1.28551,0.22414 -2.64637,0.3377 -4.04485,0.3377c-2.91578,0 -5.04833,-0.49961 -5.0695,-0.50461c-0.08207,-0.01953 -0.13598,-0.09836 -0.12438,-0.18195c0.01156,-0.08367 0.08426,-0.14547 0.16926,-0.14133c0.02027,0.00086 2.05516,0.085 4.19364,0.085c2.13449,0 3.61731,-0.08027 4.40727,-0.23855c2.06344,-0.42141 2.74973,-1.13902 2.75641,-1.14625c0.04813,-0.05195 0.12438,-0.06703 0.18891,-0.03719c0.06441,0.02984 0.1023,0.09766 0.09395,0.16809z" fill="none" stroke-width="0"></path><g id="Layer_1 2" stroke-width="1"><g fill="#db380e"><path d="M23.86602,15.48369c-1.25041,0.87943 -2.66757,1.8762 -3.42692,3.52528c-1.31891,2.87708 2.69881,6.01537 2.87053,6.14756c0.0399,0.03071 0.08768,0.04604 0.13531,0.04604c0.05058,0 0.10121,-0.01728 0.14233,-0.05174c0.07976,-0.0667 0.10238,-0.18002 0.05449,-0.2723c-0.01453,-0.02801 -1.4567,-2.82925 -1.4031,-4.83885c0.01897,-0.69994 0.99851,-1.49396 2.0355,-2.33459c0.94978,-0.76997 2.02641,-1.64264 2.65631,-2.6635c1.38286,-2.24712 -0.15412,-4.45672 -0.16982,-4.47881c-0.06105,-0.08573 -0.17373,-0.11675 -0.27008,-0.07452c-0.09625,0.04249 -0.14958,0.14656 -0.12759,0.24947c0.00312,0.01464 0.30201,1.47583 -0.5297,2.98126c-0.3426,0.62209 -1.09544,1.15157 -1.96726,1.76473z"></path><path d="M29.1341,16.47459c0.08821,-0.06644 0.11411,-0.18763 0.06078,-0.28435c-0.05343,-0.09672 -0.16971,-0.13937 -0.27299,-0.10016c-0.21242,0.08076 -5.20164,2.00394 -5.20164,4.32765c0,1.60183 0.68424,2.44802 1.18387,3.06598c0.19598,0.24239 0.36517,0.45169 0.42093,0.63038c0.15698,0.51495 -0.2149,1.4457 -0.3713,1.76092c-0.04508,0.09059 -0.02299,0.20042 0.0537,0.26659c0.04144,0.03578 0.09318,0.05396 0.14498,0.05396c0.04408,0 0.08837,-0.01311 0.12664,-0.03975c0.08578,-0.05962 2.09654,-1.48127 1.73592,-3.1941c-0.13435,-0.65105 -0.45428,-1.12673 -0.73657,-1.5465c-0.43731,-0.65036 -0.75316,-1.12013 -0.27399,-1.98777c0.56141,-1.01204 3.10393,-2.93364 3.12967,-2.95288z"></path></g><g fill="#73a1fb"><path d="M16.14697,26.23236c-0.08552,0.25608 -0.04514,0.51009 0.11665,0.73482c0.54085,0.75089 2.45663,1.16431 5.39466,1.16431c0.00016,0 0.00026,0 0.00037,0c0.39809,0 0.81838,-0.00782 1.24888,-0.02326c4.69736,-0.16813 6.43962,-1.63154 6.51151,-1.69375c0.07833,-0.06781 0.09926,-0.18071 0.05058,-0.27204c-0.04873,-0.09128 -0.15375,-0.13715 -0.25412,-0.10951c-1.65437,0.45169 -4.7435,0.61204 -6.88618,0.61204c-2.3976,0 -3.61862,-0.17273 -3.91756,-0.30026c0.15338,-0.21062 1.09946,-0.58673 2.2718,-0.81733c0.11205,-0.02199 0.18906,-0.12547 0.17796,-0.23911c-0.0111,-0.11364 -0.10655,-0.20031 -0.22077,-0.20031c-0.6872,0 -4.13352,0.05518 -4.49377,1.14439z"></path><path d="M31.8653,24.72508c-0.96886,0 -1.88761,0.48562 -1.9263,0.50618c-0.08959,0.04799 -0.13504,0.15074 -0.11046,0.24947c0.02468,0.09857 0.11332,0.16786 0.21496,0.16797c0.02056,0 2.06668,0.01675 2.25198,1.18582c0.16416,1.00855 -1.93597,2.64268 -2.75906,3.18728c-0.0889,0.05883 -0.12341,0.17246 -0.08213,0.27077c0.03515,0.08367 0.11659,0.13599 0.20444,0.13599c0.01533,0 0.03087,-0.00159 0.0463,-0.00486c0.19535,-0.04181 4.77828,-1.05173 4.29372,-3.72004c-0.29561,-1.63529 -1.3234,-1.97857 -2.13343,-1.97857z"></path><path d="M28.72237,29.69527c0.01596,-0.08546 -0.01961,-0.17241 -0.09075,-0.22235l-1.09888,-0.76971c-0.05359,-0.03753 -0.1213,-0.04931 -0.18419,-0.03266c-0.01147,0.00291 -1.16061,0.30502 -2.82899,0.49027c-0.66215,0.07426 -1.40379,0.11348 -2.1449,0.11348c-1.66795,0 -2.75853,-0.19598 -2.91736,-0.33974c-0.02104,-0.04038 -0.01438,-0.05872 -0.01062,-0.06892c0.02886,-0.08023 0.18351,-0.17558 0.28319,-0.21332c0.11009,-0.04075 0.16945,-0.1603 0.1352,-0.27257c-0.03414,-0.11242 -0.14995,-0.17854 -0.26421,-0.15111c-1.10231,0.26601 -1.64131,0.638 -1.6021,1.10559c0.06966,0.82906 1.98994,1.25458 3.61333,1.36706c0.23345,0.01596 0.48594,0.02405 0.75026,0.02405c0.00016,0 0.00026,0 0.00042,0c2.69944,0 6.16008,-0.84698 6.19465,-0.85559c0.08451,-0.02061 0.14894,-0.08885 0.16496,-0.17447z"></path><path d="M20.43784,31.47453c0.08324,-0.05412 0.12014,-0.15703 0.09059,-0.25179c-0.02944,-0.09477 -0.11807,-0.15703 -0.21765,-0.15571c-0.14773,0.00391 -1.44549,0.06247 -1.53635,0.88873c-0.02748,0.24693 0.04323,0.47256 0.2103,0.6705c0.46596,0.55221 1.72377,0.88043 3.84462,1.00337c0.2509,0.01506 0.50576,0.02262 0.7576,0.02262c2.69632,0 4.51227,-0.84423 4.58832,-0.88017c0.07373,-0.03488 0.12236,-0.10735 0.12669,-0.18874c0.00433,-0.08139 -0.03631,-0.15861 -0.10587,-0.20116l-1.38873,-0.84777c-0.0482,-0.02939 -0.10587,-0.03911 -0.16083,-0.02785c-0.00877,0.00185 -0.89053,0.18472 -2.22122,0.36538c-0.25179,0.03425 -0.56712,0.05164 -0.93709,0.05164c-1.32927,0 -2.80779,-0.21718 -3.09135,-0.3594c-0.00412,-0.02653 0.00111,-0.06025 0.04096,-0.08964z"></path><path d="M22.33031,36.20128c6.17615,-0.00523 9.49097,-1.10358 10.12954,-1.79475c0.22605,-0.2445 0.25047,-0.476 0.23129,-0.62721c-0.04746,-0.37209 -0.38641,-0.59989 -0.42484,-0.62462c-0.09271,-0.05962 -0.21712,-0.04403 -0.28943,0.03938c-0.07215,0.0834 -0.07384,0.20528 -0.00143,0.28863c0.03895,0.05011 0.06147,0.13398 -0.05243,0.24799c-0.25528,0.23842 -2.83004,0.96215 -7.11705,1.17959c-0.58726,0.0305 -1.20321,0.04604 -1.83064,0.04614c-3.83838,0 -6.6475,-0.52579 -7.01626,-0.83213c0.14212,-0.20423 1.13577,-0.53049 2.19247,-0.71506c0.11908,-0.02077 0.19952,-0.13298 0.18108,-0.25243c-0.01845,-0.1194 -0.12854,-0.20158 -0.24889,-0.18599c-0.02981,0.00407 -0.13097,0.0101 -0.24809,0.01728c-1.74353,0.10645 -3.75836,0.34371 -3.86349,1.24206c-0.03192,0.27373 0.04942,0.52225 0.24186,0.73852c0.47087,0.52906 1.82429,1.23249 8.11609,1.23249c0.00011,0.00011 0.00011,0.00011 0.00021,0.00011z"></path><path d="M33.67295,34.6013c-0.08731,-0.04038 -0.19048,-0.01998 -0.2556,0.05032c-0.00904,0.00978 -0.93762,0.98075 -3.72956,1.55093c-1.06886,0.21416 -3.07518,0.32278 -5.96326,0.32278c-2.89347,0 -5.64677,-0.11385 -5.6742,-0.11501c-0.11501,-0.0056 -0.21337,0.07801 -0.22901,0.19122c-0.0157,0.11311 0.05724,0.21977 0.16829,0.24619c0.02865,0.00677 2.91408,0.68276 6.85928,0.68276c1.89221,0 3.73352,-0.15365 5.47288,-0.45692c3.24315,-0.56855 3.47021,-2.17667 3.47829,-2.24485c0.01131,-0.09529 -0.03996,-0.18705 -0.12711,-0.22743z"></path></g><g fill="#000000" font-family="Roboto, sans-serif" font-weight="normal" font-size="14" text-anchor="start"></g><g fill="#000000" font-family="Roboto, sans-serif" font-weight="normal" font-size="14" text-anchor="start"></g><g fill="#000000" font-family="Roboto, sans-serif" font-weight="normal" font-size="14" text-anchor="start"></g><g fill="#000000" font-family="Roboto, sans-serif" font-weight="normal" font-size="14" text-anchor="start"></g><g fill="#000000" font-family="Roboto, sans-serif" font-weight="normal" font-size="14" text-anchor="start"></g><g fill="#000000" font-family="Roboto, sans-serif" font-weight="normal" font-size="14" text-anchor="start"></g><g fill="#000000" font-family="Roboto, sans-serif" font-weight="normal" font-size="14" text-anchor="start"></g><g fill="#000000" font-family="Roboto, sans-serif" font-weight="normal" font-size="14" text-anchor="start"></g><g fill="#000000" font-family="Roboto, sans-serif" font-weight="normal" font-size="14" text-anchor="start"></g><g fill="#000000" font-family="Roboto, sans-serif" font-weight="normal" font-size="14" text-anchor="start"></g><g fill="#000000" font-family="Roboto, sans-serif" font-weight="normal" font-size="14" text-anchor="start"></g><g fill="#000000" font-family="Roboto, sans-serif" font-weight="normal" font-size="14" text-anchor="start"></g><g fill="#000000" font-family="Roboto, sans-serif" font-weight="normal" font-size="14" text-anchor="start"></g><g fill="#000000" font-family="Roboto, sans-serif" font-weight="normal" font-size="14" text-anchor="start"></g><g fill="#000000" font-family="Roboto, sans-serif" font-weight="normal" font-size="14" text-anchor="start"></g></g><path d="M2,24c0,-12.15026 9.84974,-22 22,-22c12.15026,0 22,9.84974 22,22c0,12.15026 -9.84974,22 -22,22c-12.15026,0 -22,-9.84974 -22,-22z" id="base 1 1 1" fill="none" stroke-width="1"></path><g id="Layer_1 1 1" fill="#000000" stroke-width="1" font-family="Roboto, sans-serif" font-weight="normal" font-size="14" text-anchor="start"><g></g><g></g><g></g><g></g><g></g><g></g><g></g><g></g><g></g><g></g><g></g><g></g><g></g><g></g><g></g><g></g><g></g></g><rect x="2" y="2" width="44" height="22" fill="none" stroke-width="1"></rect><path d="M2,24v-22h44v22z" fill="none" stroke-width="1"></path><path d="M2,24v-22h44v22z" fill="none" stroke-width="1"></path><path d="M2,24v-22h44v22z" fill="none" stroke-width="1"></path><path d="M2,24v-22h44v22z" fill="none" stroke-width="1"></path></g></svg>