<svg version="1.1" xmlns="http://www.w3.org/2000/svg" xmlns:xlink="http://www.w3.org/1999/xlink" width="48" height="48"><defs><linearGradient x1="13.96536" y1="10.46951" x2="55.6014" y2="59.09724" gradientUnits="userSpaceOnUse" id="color-1"><stop offset="0.46" stop-color="#000000" stop-opacity="0.21"></stop><stop offset="1" stop-color="#000000" stop-opacity="0"></stop></linearGradient><filter id="dropshadow-base"><feColorMatrix type="matrix" values="0 0 0 0 0  0 0 0 0 0  0 0 0 0 0  0 0 0 .8 0"></feColorMatrix> <feOffset dx="0" dy="1"></feOffset> <feGaussianBlur stdDeviation="1"></feGaussianBlur> <feComposite in="SourceGraphic"></feComposite></filter><filter id="dropshadow-banner" x="-10%" y="-10%" width="120%" height="130%"><feColorMatrix type="matrix" values="0 0 0 0 0  0 0 0 0 0  0 0 0 0 0  0 0 0 .4 0"></feColorMatrix> <feOffset dx="0" dy="1"></feOffset> <feGaussianBlur stdDeviation="0.5"></feGaussianBlur> <feComposite in="SourceGraphic"></feComposite></filter></defs><g fill="none" fill-rule="nonzero" stroke="none" stroke-width="none" stroke-linecap="butt" stroke-linejoin="miter" stroke-miterlimit="10" stroke-dasharray="" stroke-dashoffset="0" font-family="none" font-weight="none" font-size="none" text-anchor="none" style="mix-blend-mode: normal"><path d="M7,43c-1.10457,0 -2,-0.89543 -2,-2v-34c0,-1.10457 0.89543,-2 2,-2h34c1.10457,0 2,0.89543 2,2v34c0,1.10457 -0.89543,2 -2,2z" id="base 1 5" fill="#263238" stroke-width="1"></path><path d="M26.49073,10.48827c0.08485,-0.03727 0.18236,-0.01757 0.24613,0.0462l16.26314,16.26314v14.20239c0,1.10457 -0.89543,2 -2,2h-18.75798l-7.97282,-7.97282c-0.01971,-0.01971 -0.03805,-0.03923 -0.05522,-0.05852c-0.19244,-0.21631 -0.2738,-0.46475 -0.24186,-0.73855c0.10515,-0.89825 2.11998,-1.13559 3.86351,-1.24206c0.1172,-0.0071 0.21826,-0.01331 0.24807,-0.01731c0.07158,-0.00935 0.13955,0.01598 0.18675,0.06318l1.8199,1.8199c0.37558,0.02742 0.771,0.05032 1.18391,0.06746l-2.22603,-2.22603c-0.02261,-0.02261 -0.04379,-0.04562 -0.06355,-0.06903c-0.16707,-0.19795 -0.23778,-0.42348 -0.21028,-0.67041c0.05009,-0.45553 0.46699,-0.67773 0.85579,-0.78607l-1.41529,-1.41529c-0.12659,-0.12659 -0.20321,-0.26649 -0.21613,-0.42027c-0.01349,-0.16089 0.04148,-0.31047 0.1643,-0.44831l-1.78385,-1.78385c-0.04368,-0.04368 -0.08222,-0.08866 -0.11555,-0.13492c-0.16184,-0.22474 -0.2022,-0.47894 -0.11667,-0.73491c0.36022,-1.0891 3.80656,-1.14429 4.49382,-1.14437l0,-0.00001c0.06093,0 0.11654,0.02469 0.15683,0.06498l1.49196,1.49196c0.01321,0.00001 0.02646,0.00002 0.03974,0.00002c0.69728,0 1.49478,-0.01698 2.31046,-0.05545l-2.30404,-2.30404c-1.15599,-1.15599 -2.81218,-3.27914 -1.89661,-5.27634c0.7593,-1.64912 2.1765,-2.64594 3.42691,-3.52538c0.87181,-0.61309 1.62463,-1.14269 1.96738,-1.76472l-0.00002,-0.00002c0.83171,-1.50539 0.53279,-2.9666 0.52969,-2.98115c-0.022,-0.10283 0.03132,-0.20699 0.12759,-0.24941z" fill="url(#color-1)" stroke-width="1"></path><path transform="translate(-8.47319,-8.47319) scale(1.35305,1.35305)" d="M25.35505,16.40148c0.61469,-1.11259 0.39377,-2.19253 0.39148,-2.20328c-0.01626,-0.076 0.02315,-0.15298 0.0943,-0.18433c0.07121,-0.03128 0.15449,-0.00826 0.19961,0.05508c0.01161,0.01626 1.14754,1.64931 0.12551,3.3101c-0.46557,0.75449 -1.26125,1.39948 -1.96322,1.96853c-0.76643,0.62131 -1.49036,1.20813 -1.5044,1.72538c-0.03961,1.48531 1.02623,3.55561 1.03699,3.57633c0.03541,0.0682 0.01869,0.15193 -0.04026,0.20125c-0.03043,0.02544 -0.06787,0.03823 -0.10525,0.03823c-0.03521,0 -0.07049,-0.01128 -0.1,-0.03403c-0.12689,-0.09771 -3.09627,-2.41718 -2.12151,-4.54348c0.56118,-1.21882 1.60859,-1.95554 2.53273,-2.60551c0.64433,-0.45312 1.20072,-0.84453 1.45404,-1.30426zM25.48128,20.62031c-0.35416,0.64125 -0.12072,0.98846 0.20249,1.46905c0.20866,0.31023 0.44512,0.66184 0.54439,1.14295c0.26656,1.2659 -1.21954,2.31659 -1.28295,2.36073c-0.02826,0.01967 -0.06098,0.02938 -0.09357,0.02938c-0.0383,0 -0.07652,-0.01338 -0.10715,-0.0398c-0.05666,-0.04892 -0.07298,-0.13003 -0.03967,-0.19705c0.11554,-0.23292 0.39036,-0.92079 0.27436,-1.30138c-0.04118,-0.13207 -0.16623,-0.28675 -0.31108,-0.46584c-0.36925,-0.45672 -0.87495,-1.08217 -0.87495,-2.26597c0,-1.71745 3.68742,-3.13876 3.8444,-3.19843c0.07633,-0.02898 0.1623,0.00256 0.20177,0.07403c0.03948,0.07148 0.02033,0.16105 -0.04485,0.21016c-0.01895,0.01423 -1.8981,1.43436 -2.31318,2.18217zM21.51734,24.80398c0.08439,0 0.15495,0.06407 0.16315,0.14807c0.0082,0.084 -0.04872,0.16046 -0.13154,0.17672c-0.86643,0.17043 -1.56564,0.44839 -1.67902,0.60407c0.22092,0.09423 1.12335,0.22184 2.89535,0.22184c1.58361,0 3.86676,-0.11849 5.08939,-0.45233c0.07416,-0.02039 0.1518,0.01351 0.1878,0.08098c0.036,0.06754 0.02052,0.15102 -0.03738,0.20112c-0.05311,0.04597 -1.34079,1.12748 -4.81247,1.25181c-0.31816,0.01141 -0.62879,0.01718 -0.92302,0.01718c-0.00007,0 -0.00013,0 -0.00026,0c-2.17141,0 -3.58728,-0.30564 -3.98702,-0.86053c-0.11961,-0.1661 -0.14944,-0.35397 -0.08623,-0.54315c0.26623,-0.80492 2.81332,-0.84571 3.32125,-0.84577zM31.38982,25.99815c0.3581,1.97213 -3.02899,2.7185 -3.17338,2.74932c-0.01141,0.00249 -0.02289,0.00367 -0.03423,0.00367c-0.06492,0 -0.12518,-0.03869 -0.15108,-0.10052c-0.03049,-0.07259 -0.00498,-0.15666 0.06072,-0.20013c0.60833,-0.40249 2.16046,-1.61023 2.03915,-2.35561c-0.13698,-0.864 -1.64918,-0.87633 -1.6644,-0.87639c-0.07515,-0.00007 -0.14066,-0.05128 -0.15889,-0.12413c-0.01816,-0.07292 0.01541,-0.14885 0.08164,-0.18433c0.02859,-0.01528 0.70761,-0.3741 1.42367,-0.3741c0.59869,0 1.3583,0.25364 1.57679,1.46223zM27.3683,28.33822c-0.02557,0.00636 -2.58322,0.63233 -4.5783,0.63233c-0.00013,0 -0.0002,0 -0.00033,0c-0.19534,0 -0.38197,-0.00603 -0.55449,-0.01784c-1.19981,-0.08321 -2.61902,-0.39771 -2.6705,-1.01036c-0.02898,-0.34557 0.36938,-0.62053 1.18407,-0.81712c0.08446,-0.02033 0.17003,0.02859 0.19528,0.11161c0.02531,0.08302 -0.01856,0.17141 -0.09993,0.20151c-0.07371,0.02787 -0.188,0.09836 -0.20931,0.15771c-0.00275,0.00754 -0.00767,0.02111 0.00787,0.05095c0.11738,0.10623 0.92341,0.25108 2.15613,0.25108c0.54774,0 1.09587,-0.02898 1.58525,-0.08387c1.23305,-0.13692 2.08236,-0.36013 2.09082,-0.36236c0.04649,-0.01233 0.09652,-0.00361 0.13613,0.02413l0.81213,0.56885c0.05259,0.03685 0.07889,0.10111 0.06708,0.16433c-0.01187,0.06321 -0.05948,0.11364 -0.1219,0.12905zM21.33701,29.59055c0.20957,0.10505 1.3023,0.26557 2.28473,0.26557c0.27344,0 0.50649,-0.01285 0.69259,-0.0381c0.98348,-0.13357 1.63515,-0.26872 1.64164,-0.2701c0.04066,-0.00833 0.08328,-0.00111 0.11889,0.02059l1.02636,0.62656c0.05141,0.03141 0.08144,0.08852 0.07823,0.14866c-0.00321,0.0602 -0.03915,0.11371 -0.09364,0.13948c-0.0562,0.02656 -1.3983,0.65049 -3.39109,0.65049c-0.18616,0 -0.37449,-0.00557 -0.55994,-0.01666c-1.56748,-0.09095 -2.49705,-0.33351 -2.84145,-0.74164c-0.12348,-0.1463 -0.17574,-0.31298 -0.15541,-0.49548c0.06715,-0.61069 1.0263,-0.65397 1.13548,-0.65685c0.07357,-0.00092 0.13908,0.04505 0.16085,0.11508c0.02184,0.07003 -0.00544,0.14603 -0.06695,0.1861c-0.02944,0.02164 -0.03331,0.04656 -0.0303,0.0663zM22.7658,33.01751c-4.65004,0 -5.65037,-0.51987 -5.99837,-0.91089c-0.14223,-0.15987 -0.20236,-0.34348 -0.17875,-0.54584c0.07771,-0.66387 1.56682,-0.83928 2.85541,-0.91797c0.08662,-0.00525 0.16131,-0.00984 0.18334,-0.01279c0.08892,-0.01161 0.1703,0.04918 0.18393,0.13744c0.01364,0.08826 -0.04584,0.17121 -0.13384,0.18656c-0.78098,0.13633 -1.51528,0.37751 -1.6204,0.52839c0.27253,0.22649 2.34866,0.61502 5.18552,0.61502c0.46374,-0.00007 0.91895,-0.01148 1.35299,-0.0341c3.1684,-0.16066 5.07135,-0.69554 5.26001,-0.87174c0.0842,-0.08426 0.06754,-0.14623 0.03875,-0.18328c-0.05351,-0.06157 -0.05226,-0.15161 0.00105,-0.21331c0.05344,-0.06164 0.14538,-0.07318 0.2139,-0.02911c0.02846,0.0183 0.27889,0.18662 0.31397,0.46164c0.01423,0.11174 -0.0038,0.28282 -0.17089,0.46361c-0.47194,0.51082 -2.92184,1.32256 -7.48644,1.32643c-0.00007,0 -0.00007,0 -0.0002,-0.00007zM31.243,32.00314c-0.00597,0.05036 -0.17377,1.23889 -2.57069,1.65908c-1.28551,0.22413 -2.64637,0.33777 -4.04486,0.33777c-2.91581,0 -5.04834,-0.49961 -5.06952,-0.50466c-0.0821,-0.01954 -0.136,-0.0983 -0.12439,-0.18197c0.01154,-0.08367 0.08426,-0.14544 0.16925,-0.14131c0.02033,0.00085 2.05515,0.08498 4.19365,0.08498c2.1345,0 3.61732,-0.08026 4.40729,-0.23856c2.06341,-0.42138 2.74964,-1.13902 2.7564,-1.14623c0.0482,-0.05193 0.12439,-0.06702 0.18892,-0.03718c0.06439,0.02984 0.1023,0.09764 0.09397,0.16807z" id="XMLID_8_ 1 1" fill="none" stroke-width="0"></path><path d="M25.83345,13.71883c0.83171,-1.50539 0.53279,-2.9666 0.52969,-2.98115c-0.022,-0.10283 0.03132,-0.20699 0.12759,-0.24941c0.09636,-0.04232 0.20904,-0.01118 0.27008,0.07453c0.0157,0.022 1.55268,2.2316 0.16982,4.47873c-0.62995,1.02087 -1.70653,1.89356 -2.65633,2.66352c-1.03701,0.84067 -2.01653,1.63466 -2.03552,2.33452c-0.05359,2.0097 1.38854,4.81092 1.40309,4.83896c0.04791,0.09227 0.02529,0.20558 -0.05448,0.2723c-0.04117,0.03443 -0.09183,0.05173 -0.1424,0.05173c-0.04765,0 -0.09538,-0.01526 -0.13531,-0.04605c-0.17168,-0.1322 -4.1894,-3.27057 -2.87051,-6.14756c0.75931,-1.64913 2.17651,-2.64595 3.4269,-3.52539c0.87181,-0.61309 1.62464,-1.14269 1.96738,-1.76473zM26.00425,19.42711c-0.4792,0.86764 -0.16334,1.33744 0.27398,1.9877c0.28232,0.41976 0.60226,0.8955 0.73659,1.54647c0.36067,1.71283 -1.6501,3.13447 -1.7359,3.19418c-0.03824,0.02662 -0.08251,0.03975 -0.12661,0.03975c-0.05182,0 -0.10354,-0.0181 -0.14498,-0.05386c-0.07666,-0.06619 -0.09875,-0.17594 -0.05368,-0.26662c0.15633,-0.31515 0.52818,-1.24587 0.37122,-1.76083c-0.05572,-0.17869 -0.22492,-0.38799 -0.42091,-0.6303c-0.49961,-0.61797 -1.18385,-1.46422 -1.18385,-3.06597c0,-2.32379 4.98926,-4.2469 5.20166,-4.32764c0.10328,-0.03922 0.21959,0.00346 0.27301,0.10017c0.05341,0.09671 0.0275,0.21791 -0.06069,0.28436c-0.02564,0.01925 -2.56823,1.94076 -3.12985,2.95258zM20.64084,25.08783c0.11419,0 0.20966,0.08668 0.22075,0.20034c0.01109,0.11366 -0.06592,0.21711 -0.17798,0.23911c-1.17232,0.2306 -2.11839,0.6067 -2.2718,0.81733c0.29891,0.1275 1.51994,0.30016 3.91755,0.30016c2.1427,0 5.23192,-0.16033 6.88619,-0.61202c0.10035,-0.02759 0.2054,0.01828 0.25411,0.10958c0.04871,0.09139 0.02777,0.20433 -0.05057,0.27212c-0.07187,0.0622 -1.81415,1.52553 -6.51151,1.69375c-0.43049,0.01544 -0.85078,0.02325 -1.24889,0.02325c-0.00009,0 -0.00018,0 -0.00035,0c-2.93803,0 -4.85377,-0.41355 -5.39464,-1.16433c-0.16183,-0.22474 -0.2022,-0.47894 -0.11667,-0.73491c0.36022,-1.0891 3.80656,-1.14428 4.49382,-1.14437zM33.99879,26.7036c0.48453,2.6684 -4.09837,3.67826 -4.29374,3.71996c-0.01544,0.00337 -0.03096,0.00497 -0.04631,0.00497c-0.08784,0 -0.16938,-0.05235 -0.20442,-0.13601c-0.04126,-0.09822 -0.00674,-0.21196 0.08216,-0.27079c0.8231,-0.54459 2.92321,-2.17872 2.75907,-3.18726c-0.18535,-1.16904 -2.23143,-1.18572 -2.25201,-1.18581c-0.10168,-0.00009 -0.19031,-0.06938 -0.21498,-0.16796c-0.02458,-0.09866 0.02085,-0.20141 0.11046,-0.24941c0.03868,-0.02067 0.95743,-0.50617 1.9263,-0.50617c0.81006,0 1.83784,0.34319 2.13347,1.97847zM28.55748,29.86983c-0.0346,0.00861 -3.49522,0.85557 -6.19467,0.85557c-0.00018,0 -0.00027,0 -0.00044,0c-0.26431,0 -0.51682,-0.00816 -0.75026,-0.02413c-1.6234,-0.11259 -3.54366,-0.53812 -3.61331,-1.36707c-0.03922,-0.46758 0.49979,-0.8396 1.6021,-1.1056c0.11428,-0.0275 0.23006,0.03868 0.26422,0.15101c0.03425,0.11233 -0.02511,0.23193 -0.13522,0.27265c-0.09973,0.03771 -0.25437,0.13309 -0.28321,0.21338c-0.00373,0.0102 -0.01038,0.02857 0.01065,0.06894c0.15882,0.14373 1.24942,0.33973 2.91736,0.33973c0.74112,0 1.48277,-0.03922 2.14492,-0.11348c1.66838,-0.18526 2.81754,-0.48728 2.82899,-0.49029c0.06291,-0.01668 0.1306,-0.00488 0.18419,0.03265l1.09886,0.76969c0.07116,0.04986 0.10674,0.13681 0.09077,0.22234c-0.01606,0.08553 -0.08047,0.15376 -0.16494,0.17461zM20.39685,31.56429c0.28356,0.14214 1.76207,0.35934 3.09135,0.35934c0.36998,0 0.68531,-0.01739 0.93711,-0.05155c1.33069,-0.18073 2.21244,-0.36359 2.22122,-0.36546c0.05501,-0.01127 0.11268,-0.00151 0.16086,0.02786l1.38872,0.84776c0.06956,0.0425 0.1102,0.11978 0.10585,0.20114c-0.00435,0.08145 -0.05297,0.15385 -0.1267,0.18872c-0.07604,0.03593 -1.89197,0.88015 -4.58831,0.88015c-0.25189,0 -0.50671,-0.00754 -0.75762,-0.02254c-2.12088,-0.12306 -3.37864,-0.45125 -3.84462,-1.00348c-0.16707,-0.19794 -0.23778,-0.42348 -0.21028,-0.6704c0.09085,-0.82629 1.38863,-0.88485 1.53636,-0.88876c0.09955,-0.00124 0.18819,0.06095 0.21764,0.15571c0.02955,0.09476 -0.00736,0.19759 -0.09059,0.2518c-0.03984,0.02928 -0.04507,0.06299 -0.04099,0.0897zM22.33007,36.20113c-6.29173,0 -7.64523,-0.70341 -8.11609,-1.23247c-0.19244,-0.21631 -0.2738,-0.46474 -0.24186,-0.73854c0.10514,-0.89825 2.11999,-1.13559 3.86352,-1.24206c0.11721,-0.0071 0.21826,-0.01331 0.24807,-0.0173c0.12031,-0.0157 0.23042,0.06654 0.24887,0.18597c0.01845,0.11942 -0.06202,0.23166 -0.18109,0.25242c-1.05671,0.18446 -2.05025,0.51079 -2.19248,0.71494c0.36874,0.30646 3.17785,0.83215 7.01626,0.83215c0.62746,-0.00009 1.24339,-0.01553 1.83066,-0.04614c4.287,-0.21738 6.86179,-0.9411 7.11705,-1.17951c0.11392,-0.11401 0.09139,-0.19786 0.05244,-0.24799c-0.0724,-0.08331 -0.07071,-0.20513 0.00142,-0.28862c0.07231,-0.0834 0.1967,-0.09902 0.28942,-0.03939c0.03851,0.02475 0.37735,0.25251 0.42481,0.62462c0.01925,0.15119 -0.00515,0.38267 -0.23122,0.62728c-0.63855,0.69117 -3.9534,1.78949 -10.12952,1.79472c-0.00009,0 -0.00009,0 -0.00027,-0.00009zM33.80013,34.82865c-0.00807,0.06814 -0.23512,1.67628 -3.47827,2.24482c-1.73936,0.30326 -3.58066,0.45702 -5.47289,0.45702c-3.94523,0 -6.83065,-0.67599 -6.85931,-0.68283c-0.11108,-0.02644 -0.18402,-0.133 -0.16831,-0.24621c0.01562,-0.11321 0.11401,-0.19679 0.229,-0.1912c0.0275,0.00115 2.78072,0.11499 5.67421,0.11499c2.88808,0 4.89441,-0.1086 5.96328,-0.32278c2.7919,-0.57014 3.7204,-1.54115 3.72954,-1.55091c0.06521,-0.07027 0.16831,-0.09068 0.25562,-0.05031c0.08713,0.04037 0.13841,0.13211 0.12714,0.2274z" id="XMLID_8_ 1 1" fill="#eeff41" stroke-width="0"></path><path d="M2,24c0,-12.15026 9.84974,-22 22,-22c12.15026,0 22,9.84974 22,22c0,12.15026 -9.84974,22 -22,22c-12.15026,0 -22,-9.84974 -22,-22z" id="base 1 1 1" fill="none" stroke-width="1"></path><g id="Layer_1 1 1" fill="#000000" stroke-width="1" font-family="Roboto, sans-serif" font-weight="normal" font-size="14" text-anchor="start"><g id="XMLID_7_ 1 1"></g><g></g><g></g><g></g><g></g><g></g><g></g><g></g><g></g><g></g><g></g><g></g><g></g><g></g><g></g><g></g></g><rect x="2" y="2" width="44" height="22" fill="none" stroke-width="1"></rect><path d="M2,24v-22h44v22z" fill="none" stroke-width="1"></path><path d="M2,24v-22h44v22z" fill="none" stroke-width="1"></path><path d="M2,24v-22h44v22z" fill="none" stroke-width="1"></path><path d="M2,24v-22h44v22z" fill="none" stroke-width="1"></path></g></svg>